<svg width="24" height="24" viewBox="0 0 24 24" fill="none" xmlns="http://www.w3.org/2000/svg">
<mask id="mask0_532_2009" style="mask-type:alpha" maskUnits="userSpaceOnUse" x="0" y="0" width="24" height="24">
<rect width="24" height="24" fill="#D9D9D9"/>
</mask>
<g mask="url(#mask0_532_2009)">
<path d="M19.4846 20.1537L13.2231 13.8921C12.7231 14.3178 12.1481 14.6473 11.4981 14.8806C10.8481 15.1139 10.1949 15.2306 9.53845 15.2306C7.93679 15.2306 6.58124 14.6762 5.47183 13.5674C4.36239 12.4586 3.80768 11.1037 3.80768 9.50294C3.80768 7.90214 4.36209 6.54629 5.4709 5.43539C6.57972 4.32449 7.93453 3.76904 9.53533 3.76904C11.1361 3.76904 12.492 4.32375 13.6029 5.43317C14.7138 6.54258 15.2692 7.89814 15.2692 9.49982C15.2692 10.1947 15.1462 10.8671 14.9 11.5171C14.6539 12.1671 14.3308 12.7229 13.9308 13.1844L20.1923 19.446L19.4846 20.1537ZM9.53845 14.2306C10.8654 14.2306 11.9856 13.7739 12.899 12.8604C13.8125 11.9469 14.2692 10.8267 14.2692 9.49982C14.2692 8.1729 13.8125 7.05271 12.899 6.13924C11.9856 5.22578 10.8654 4.76904 9.53845 4.76904C8.21154 4.76904 7.09134 5.22578 6.17788 6.13924C5.26443 7.05271 4.8077 8.1729 4.8077 9.49982C4.8077 10.8267 5.26443 11.9469 6.17788 12.8604C7.09134 13.7739 8.21154 14.2306 9.53845 14.2306Z" fill="#515151"/>
</g>
</svg>
