<svg xmlns="http://www.w3.org/2000/svg" fill="none" viewBox="0 0 895 169" height="169" width="895">
<path fill="black" d="M253.262 125.539C236.73 125.539 226.489 110.719 226.489 90.2065C226.489 69.6937 235.111 54.7705 253.159 54.7705C265.019 54.7705 272.826 62.3816 274.249 72.437H301.827C300.404 59.9477 294.835 48.9848 285.099 41.6728C277.189 35.5777 266.236 31.8237 253.262 31.8237C220.002 31.8237 198.406 56.9982 198.406 90.2065C198.406 123.415 220.714 148.074 253.468 148.074C269.186 148.074 280.644 143.711 289.162 135.378C296.763 128.066 301.837 117.918 302.549 106.852H274.971C273.754 117.712 265.638 125.529 253.272 125.529L253.262 125.539Z"></path>
<path fill="black" d="M352.072 63.6092C326.516 63.6092 309.386 81.8841 309.386 105.945C309.386 130.005 326.526 148.28 352.072 148.28C377.618 148.28 394.655 130.005 394.655 105.945C394.655 81.8841 377.824 63.6092 352.072 63.6092ZM351.969 130.108C340.913 130.108 335.138 120.466 335.138 105.945C335.138 91.4238 340.913 81.5747 351.969 81.5747C363.024 81.5747 369.006 91.4238 369.006 105.945C368.903 120.466 363.024 130.108 351.969 130.108Z"></path>
<path fill="black" d="M429.37 55.112C434.794 49.677 434.794 40.8695 429.37 35.4448C423.945 30.0098 415.148 30.0098 409.723 35.4448C404.298 40.8798 404.298 49.6873 409.723 55.112C415.148 60.547 423.945 60.547 429.37 55.112Z"></path>
<path fill="black" d="M397.45 83.7099H408.094V145.744H433.443V65.7444H397.45V83.7099Z"></path>
<path fill="black" d="M497.179 63.4038C486.123 63.4038 478.419 68.0756 472.541 76.7077H472.035V65.7449H447.593V145.651H473.046V101.49C473.046 91.6412 478.625 84.6386 487.041 84.6386C495.457 84.6386 499.51 90.4242 499.51 98.8501V145.651H524.962V93.6729C524.962 75.9033 514.618 63.4141 497.179 63.4141V63.4038Z"></path>
<path fill="black" d="M583.211 34.0616H535.657V145.64H581.488C595.483 145.64 606.735 142.082 615.46 135.492C627.939 125.952 634.828 110.214 634.828 90.5159C634.828 56.3999 614.037 34.0719 583.211 34.0719V34.0616ZM579.467 122.497H563.244V57.2147H579.776C597.113 57.2147 606.952 70.3124 606.952 90.619C606.848 111.029 597.525 122.497 579.477 122.497H579.467Z"></path>
<path fill="black" d="M708.794 73.9643C701.895 67.7764 692.871 64.0121 681.516 64.0121C657.177 64.0121 640.552 82.287 640.552 106.141C640.552 129.996 656.775 148.58 683.135 148.58C693.273 148.58 701.389 145.94 708.083 141.268C715.075 136.39 719.747 129.593 721.469 122.385H696.728C694.5 127.356 690.138 130.305 683.444 130.305C672.997 130.305 667.119 123.602 665.5 112.845H722.892C722.995 96.4985 718.334 82.6892 708.794 73.9643ZM665.603 97.6227C667.325 88.083 672.296 81.9879 681.928 81.9879C690.138 81.9879 696.13 88.083 697.037 97.6227H665.603Z"></path>
<path fill="black" d="M774.355 95.6943C764.218 93.8688 755.193 93.0541 755.193 87.4747C755.193 82.5037 760.061 80.1627 766.249 80.1627C773.252 80.1627 778.109 82.4006 779.027 89.5064H802.448C801.231 73.7685 789.062 63.9194 766.455 63.9194C747.593 63.9194 731.979 72.6547 731.979 89.5064C731.979 108.287 746.788 111.948 760.67 114.279C771.313 116.104 780.945 116.919 780.945 124.128C780.945 129.305 776.078 132.048 768.477 132.048C760.061 132.048 754.791 128.191 753.77 120.167H729.741C730.545 137.834 745.148 148.59 768.58 148.59C789.464 148.59 804.882 139.556 804.882 122.096C804.985 101.686 788.453 98.0354 774.355 95.6943Z"></path>
<path fill="black" d="M863.336 95.796L891.419 65.7434H862.12L838.389 92.7536V34.0717H813.349V145.753H838.389V121.187L846.093 113.06L865.255 145.753H894.658L863.326 95.8063L863.336 95.796Z"></path>
<path fill="#FFD200" d="M84.59 95.1158C90.2623 95.1158 94.8619 90.5058 94.8619 84.8232C94.8619 79.1407 90.2623 74.5307 84.59 74.5307C78.9178 74.5307 74.3181 79.1407 74.3181 84.8232C74.3181 90.5058 78.9178 95.1158 84.59 95.1158Z"></path>
<path fill="#FFD200" d="M146.036 95.1158C151.708 95.1158 156.308 90.5058 156.308 84.8232C156.308 79.1407 151.708 74.5307 146.036 74.5307C140.364 74.5307 135.764 79.1407 135.764 84.8232C135.764 90.5058 140.364 95.1158 146.036 95.1158Z"></path>
<path fill="#FFD200" d="M146.036 155.716C151.708 155.716 156.308 151.106 156.308 145.423C156.308 139.741 151.708 135.131 146.036 135.131C140.364 135.131 135.764 139.741 135.764 145.423C135.764 151.106 140.364 155.716 146.036 155.716Z"></path>
<path fill="#FFD200" d="M168.147 21.2738C167.333 10.0015 158.309 0.864025 147.057 0.0595983C139.858 -0.445746 133.371 2.29755 128.803 6.9591C125.358 10.5171 120.686 12.6417 115.726 12.6417H113.9C108.826 12.6417 104.061 10.5068 100.514 6.85597C96.3575 2.59664 90.5718 0.049283 84.188 0.049283C77.8041 0.049283 72.0185 2.68945 67.8623 6.85597C64.3145 10.5068 59.5498 12.6417 54.4758 12.6417H52.7535C47.7825 12.6417 43.0178 10.7131 39.5732 7.15505C38.8616 6.44344 38.15 5.73184 37.4487 5.12336C28.8269 -1.87928 16.1521 -1.68333 7.83966 5.73184C-2.19504 14.5599 -2.60757 29.9987 6.72584 39.3321C6.82897 39.4352 6.9321 39.5384 7.02492 39.6415C10.6758 43.0964 12.6043 47.9642 12.6043 52.9455V54.6678C12.6043 59.7419 10.4798 64.5168 6.82897 68.0646C2.55932 72.2414 0.0222856 78.0271 0.0222856 84.4212C0.0222856 90.8154 2.66245 96.6011 6.81866 100.768C10.4695 104.326 12.594 109.09 12.594 114.164V116.495C12.594 121.466 10.4695 126.138 6.91148 129.593C2.45619 133.966 -0.276796 140.154 0.0222856 146.96C0.52763 158.944 10.2633 168.587 22.1234 168.989C29.0229 169.195 35.2005 166.452 39.5629 161.883C43.0075 158.325 47.6794 156.098 52.64 156.098H54.5686C59.5395 156.098 64.2011 158.232 67.6457 161.883C72.2041 166.658 78.8045 169.391 86.0031 168.886C97.2548 168.071 106.382 158.934 107.197 147.569C108.104 134.069 97.5641 122.9 84.2808 122.9C77.9898 122.9 72.2144 125.437 68.0582 129.603C64.5105 133.161 59.7458 135.286 54.7748 135.286H52.6503C47.6794 135.286 42.8116 133.357 39.2639 129.706C39.1951 129.638 39.1263 129.569 39.0576 129.5C35.4067 125.942 33.2822 121.177 33.2822 116.103V114.072C33.2822 108.997 35.4067 104.223 39.0576 100.675C43.3169 96.5083 45.854 90.7226 45.854 84.3284C45.854 77.9343 43.2138 72.1486 39.0576 67.9821C35.4067 64.424 33.2822 59.6593 33.2822 54.5853V52.7598C33.2822 47.6858 35.4067 42.9108 38.9648 39.363C39.0335 39.2943 39.1023 39.2255 39.171 39.1568L39.3773 38.9505C42.925 35.3925 47.6897 33.268 52.7638 33.268H54.5892C59.6633 33.268 64.428 35.4028 67.9757 39.0537C72.1319 43.313 77.9176 45.8603 84.3014 45.8603C90.6853 45.8603 96.471 43.2202 100.627 39.0537C104.175 35.4028 108.94 33.268 114.014 33.268H115.633C120.707 33.268 125.472 35.4028 129.019 39.0537C133.175 43.313 138.961 45.8603 145.345 45.8603C158.525 45.9635 169.076 34.7943 168.158 21.2944L168.147 21.2738Z"></path>
</svg>
