<svg width="24" height="24" viewBox="0 0 24 24" fill="none" xmlns="http://www.w3.org/2000/svg">
<mask id="mask0_532_3974" style="mask-type:alpha" maskUnits="userSpaceOnUse" x="0" y="0" width="24" height="24">
<rect width="24" height="24" fill="#D9D9D9"/>
</mask>
<g mask="url(#mask0_532_3974)">
<path d="M3 17.9616V16.9616H12.5577V17.9616H3ZM3 13.1731V12.1731H7.46152V13.1731H3ZM3 8.38463V7.38463H7.46152V8.38463H3ZM20.2923 18L16.4038 14.1692C16.0423 14.4397 15.6497 14.649 15.226 14.7971C14.8022 14.9452 14.3679 15.0192 13.9231 15.0192C12.8004 15.0192 11.8435 14.6311 11.0522 13.8548C10.261 13.0785 9.86538 12.1301 9.86538 11.0096C9.86538 9.88911 10.2614 8.94071 11.0536 8.16443C11.8457 7.38814 12.8037 7 13.9276 7C15.0515 7 16.008 7.38814 16.7971 8.16443C17.5862 8.94071 17.9808 9.8859 17.9808 11C17.9808 11.4449 17.9067 11.8792 17.7587 12.3029C17.6106 12.7266 17.3949 13.1128 17.1115 13.4616L21 17.2923L20.2923 18ZM13.9231 14.0192C14.7724 14.0192 15.4944 13.7276 16.089 13.1442C16.6835 12.5609 16.9808 11.8494 16.9808 11.0096C16.9808 10.1699 16.6835 9.45833 16.089 8.875C15.4944 8.29167 14.7724 8 13.9231 8C13.0737 8 12.3518 8.29167 11.7572 8.875C11.1627 9.45833 10.8654 10.1699 10.8654 11.0096C10.8654 11.8494 11.1627 12.5609 11.7572 13.1442C12.3518 13.7276 13.0737 14.0192 13.9231 14.0192Z" fill="#515151"/>
</g>
</svg>
